<svg width="203" height="94" viewBox="0 0 203 94" fill="none" xmlns="http://www.w3.org/2000/svg">
<rect width="203" height="94" rx="10" fill="white"/>
<g clip-path="url(#clip0_20686_5199)">
<path d="M179 24.1484H23V27.262H179V24.1484Z" fill="#00ADB8"/>
<path d="M179 57.2109H23V60.621H179V57.2109Z" fill="#00ADB8"/>
<path d="M178.966 24.1484H175.576V60.576H178.966V24.1484Z" fill="#00ADB8"/>
<path d="M175.575 27.209H41.4268V57.2253H175.575V27.209Z" fill="white"/>
<path d="M23 24V60.4898H41.4569V43.1257H37.32V49.8994H35.1985V34.5904H37.32V41.0496H41.4569V24H23Z" fill="#00ADB8"/>
<path d="M23 24V60.5003H178.917V24H23ZM177.125 58.7177H26.5853V25.793H177.125V58.7177Z" fill="#00ADB8"/>
<path d="M45.5939 34.7383V41.1973H41.457V43.2735H45.5939V50.0473H47.7153V34.7383H45.5939Z" fill="#181819"/>
<path d="M37.3202 34.5898V41.0489H41.4571V43.1356H37.3202V49.8988H35.1987V34.5898H37.3202Z" fill="white"/>
<path d="M54.1755 44.0189C54.1755 44.5641 54.2815 45.078 54.4831 45.5603C54.6846 46.0426 54.9816 46.4725 55.3423 46.829C55.7029 47.1855 56.1273 47.4791 56.6151 47.6784C57.103 47.888 57.6228 47.9825 58.1638 47.9825C58.7154 47.9825 59.2351 47.8775 59.7126 47.6784C60.2004 47.4686 60.6247 47.1855 60.9853 46.829C61.3461 46.4725 61.6324 46.0426 61.8445 45.5603C62.0461 45.078 62.1522 44.5537 62.1522 44.0189V34.823H64.2631V44.0189C64.2631 44.5746 64.1889 45.1199 64.0509 45.6336C63.9024 46.1474 63.7009 46.6297 63.4357 47.0807C63.1705 47.5316 62.8522 47.9405 62.481 48.3075C62.1097 48.6744 61.696 48.989 61.24 49.2617C60.7839 49.5238 60.3066 49.7335 59.7868 49.8699C59.2669 50.0167 58.726 50.09 58.1638 50.09C57.6016 50.09 57.0712 50.0167 56.5515 49.8699C56.0317 49.7229 55.5544 49.5238 55.0983 49.2617C54.6528 48.9996 54.2391 48.6849 53.8572 48.3075C53.4859 47.9405 53.1678 47.5316 52.9026 47.0807C52.6374 46.6297 52.4358 46.1474 52.2873 45.6231C52.1388 45.1094 52.0752 44.5641 52.0752 44.0084V34.8125H54.186V44.0189H54.1755Z" fill="#181819"/>
<path d="M68.8452 49.911V34.8223H70.9455V47.8243H77.4903V49.911H68.8452Z" fill="#181819"/>
<path d="M83.2395 49.911H81.1392V34.8223H83.2395V49.911ZM84.9897 41.5016L89.2327 35.7765C89.4342 35.4619 89.6994 35.2207 90.007 35.0634C90.3252 34.9062 90.6859 34.8223 91.089 34.8223H92.5315L87.3234 41.8582C87.2491 41.9525 87.1749 42.0259 87.1111 42.0783C87.0475 42.1203 87.0051 42.1517 86.9944 42.1517C87.0051 42.1621 87.0475 42.1937 87.1111 42.2356C87.1749 42.2775 87.2491 42.3509 87.3234 42.4453L92.8816 49.911H91.4389C91.0359 49.911 90.6753 49.8376 90.357 49.6698C90.0388 49.5126 89.7843 49.2714 89.5827 48.9568L84.9897 42.8123C84.8943 42.6969 84.8094 42.5921 84.7245 42.5187C84.6397 42.4348 84.5548 42.3719 84.4806 42.3194C84.4063 42.2671 84.3426 42.2356 84.2896 42.2041C84.2365 42.1832 84.2154 42.1621 84.2047 42.1621C84.2047 42.1621 84.2365 42.1517 84.2896 42.1307C84.3426 42.1098 84.4063 42.0783 84.4806 42.0259C84.5548 41.9734 84.6397 41.9105 84.7245 41.8266C84.8094 41.7323 84.9048 41.6275 84.9897 41.5016Z" fill="#181819"/>
<path d="M93.9214 49.8482H95.7245L100.169 34.8223H98.3128L93.9214 49.8482Z" fill="#181819"/>
<path d="M158.542 50.6238L158.849 50.1939L159.083 49.8794L159.825 48.8727L160.567 47.8661L161.321 46.8385L162.01 45.9053L162.859 44.7519L163.368 44.0598L163.665 43.6614L163.739 43.567C163.739 43.567 163.824 43.4622 163.835 43.4517C163.835 43.4517 163.92 43.3468 163.983 43.3154C163.983 43.3154 164.057 43.2629 164.079 43.2524C164.079 43.2524 163.994 43.1895 163.972 43.179C163.972 43.179 163.877 43.1161 163.792 43.0113C163.792 43.0113 163.707 42.9065 163.676 42.8645L158.202 35.4512H158.234H158.298H159.252H159.687C159.687 35.4512 159.973 35.4512 160.164 35.4931C160.164 35.4931 160.345 35.5246 160.504 35.5875C160.504 35.5875 160.631 35.6294 160.684 35.6609C160.684 35.6609 160.833 35.7343 160.864 35.7552C160.864 35.7552 161.002 35.8391 161.055 35.8916C161.055 35.8916 161.215 36.0279 161.246 36.0593C161.246 36.0593 161.448 36.269 161.543 36.4368C161.543 36.4368 161.925 36.9506 161.978 37.0345L162.509 37.758L163.039 38.471L163.516 39.1211L164.004 39.7817L164.429 40.3479L164.98 41.0925L165.617 41.9628L166.105 42.6233C166.105 42.6233 166.338 42.9483 166.603 43.1056C166.603 43.1056 166.73 43.1895 166.879 43.2629C166.879 43.2629 166.677 43.3258 166.497 43.4831C166.497 43.4831 166.296 43.6509 166.158 43.8397L165.829 44.28L165.521 44.6889L165.235 45.0769L164.885 45.5487L164.577 45.9578L164.227 46.4296L163.845 46.9434L163.463 47.4572L163.092 47.9605L162.689 48.5162L162.307 49.0405L161.915 49.5857L161.745 49.8269C161.745 49.8269 161.586 50.0365 161.48 50.1205C161.48 50.1205 161.289 50.2883 161.098 50.3826C161.098 50.3826 160.864 50.5085 160.578 50.5713C160.578 50.5713 160.387 50.6133 160.27 50.6238C160.27 50.6238 159.995 50.6447 159.793 50.6344L158.542 50.6238Z" fill="#181819"/>
<path d="M112.272 47.3425C112.505 47.3425 112.675 47.395 112.77 47.4998C112.866 47.6047 112.919 47.783 112.919 48.0452C112.919 48.3073 112.866 48.4855 112.77 48.5903C112.675 48.6951 112.505 48.7476 112.272 48.7476H111.614C111.402 48.7476 111.2 48.7267 111.009 48.6742C110.818 48.6218 110.638 48.538 110.49 48.433C110.331 48.3282 110.203 48.1814 110.087 48.0241C109.97 47.8564 109.896 47.6677 109.843 47.437C109.302 47.9087 108.697 48.2862 108.05 48.5694C107.392 48.8525 106.692 48.9889 105.928 48.9889C105.409 48.9889 104.942 48.9258 104.507 48.7896C104.072 48.6533 103.701 48.4541 103.383 48.2023C103.065 47.9402 102.82 47.6257 102.64 47.2586C102.46 46.8916 102.375 46.4618 102.375 45.9794C102.375 45.4028 102.492 44.9099 102.714 44.501C102.937 44.092 103.245 43.767 103.627 43.5154C104.008 43.2636 104.454 43.0854 104.963 42.9595C105.472 42.8443 106.003 42.7813 106.565 42.7813C107.127 42.7813 107.668 42.8233 108.188 42.9177C108.708 43.0015 109.217 43.1379 109.705 43.3056V42.4249C109.705 41.7537 109.546 41.261 109.227 40.9569C108.909 40.6423 108.358 40.485 107.583 40.485C107.021 40.485 106.459 40.5584 105.907 40.7051C105.345 40.8519 104.847 41.0826 104.412 41.3972C104.253 41.5126 104.093 41.5546 103.924 41.5231C103.754 41.4915 103.595 41.3658 103.446 41.156C103.298 40.9464 103.234 40.7576 103.266 40.5794C103.298 40.4116 103.393 40.2648 103.552 40.1494C103.818 39.9502 104.115 39.7825 104.443 39.6252C104.772 39.4784 105.101 39.3525 105.451 39.2686C105.801 39.1743 106.151 39.1114 106.512 39.059C106.873 39.017 107.233 38.9961 107.583 38.9961C108.814 38.9961 109.737 39.2897 110.352 39.8664C110.956 40.443 111.264 41.3028 111.264 42.4352V46.5561C111.264 47.1014 111.487 47.374 111.943 47.374L112.272 47.3425ZM109.683 44.6792C109.206 44.5219 108.708 44.4066 108.167 44.3332C107.626 44.2598 107.095 44.2178 106.554 44.2178C106.183 44.2178 105.844 44.2493 105.525 44.3123C105.207 44.3751 104.942 44.4694 104.719 44.6058C104.496 44.7421 104.316 44.9203 104.189 45.1301C104.062 45.3398 103.998 45.6124 103.998 45.9165C103.998 46.4199 104.178 46.8077 104.518 47.0909C104.868 47.374 105.356 47.5104 105.981 47.5104C106.724 47.5104 107.392 47.353 108.007 47.049C108.623 46.7449 109.185 46.3254 109.694 45.8012V44.6792H109.683Z" fill="#181819"/>
<path d="M116.897 40.6005H116.048C115.815 40.6005 115.645 40.5482 115.55 40.4432C115.454 40.3384 115.401 40.1602 115.401 39.898C115.401 39.6359 115.454 39.4577 115.55 39.3527C115.645 39.2479 115.815 39.1955 116.048 39.1955H117.693C117.926 39.1955 118.096 39.2479 118.191 39.3527C118.286 39.4577 118.34 39.6359 118.34 39.898V40.7264C118.764 40.1707 119.262 39.7302 119.835 39.4261C120.408 39.122 121.034 38.9648 121.723 38.9648C122.36 38.9648 122.954 39.0697 123.495 39.2898C124.036 39.51 124.513 39.8141 124.906 40.223C125.298 40.6319 125.616 41.1248 125.839 41.712C126.062 42.2992 126.178 42.9598 126.178 43.7043C126.178 44.4487 126.062 45.1094 125.839 45.6965C125.616 46.2838 125.298 46.7766 124.906 47.1855C124.513 47.5945 124.036 47.8986 123.495 48.1187C122.954 48.3389 122.36 48.4437 121.723 48.4437C121.034 48.4437 120.419 48.3075 119.878 48.0243C119.337 47.7412 118.859 47.3427 118.446 46.829V51.3902H120.737C120.97 51.3902 121.14 51.4427 121.235 51.5475C121.331 51.6523 121.384 51.8305 121.384 52.0928C121.384 52.355 121.331 52.5332 121.235 52.638C121.14 52.7428 120.97 52.7953 120.737 52.7953H115.741C115.507 52.7953 115.338 52.7428 115.242 52.638C115.147 52.5332 115.094 52.355 115.094 52.0928C115.094 51.8305 115.147 51.6523 115.242 51.5475C115.338 51.4427 115.507 51.3902 115.741 51.3902H116.897V40.6005ZM118.446 43.7148C118.446 44.2285 118.52 44.6794 118.679 45.078C118.838 45.4763 119.061 45.8119 119.337 46.0845C119.623 46.3572 119.952 46.5668 120.344 46.7136C120.726 46.8604 121.15 46.9338 121.607 46.9338C122.073 46.9338 122.487 46.8604 122.858 46.6927C123.23 46.5354 123.527 46.3152 123.781 46.0217C124.025 45.7385 124.216 45.3924 124.354 45.0044C124.481 44.6166 124.545 44.1866 124.545 43.7148C124.545 43.2429 124.481 42.8131 124.354 42.4251C124.227 42.037 124.036 41.691 123.781 41.408C123.537 41.1248 123.23 40.9046 122.858 40.7369C122.487 40.5796 122.084 40.4957 121.607 40.4957C121.15 40.4957 120.726 40.5691 120.344 40.7159C119.962 40.8626 119.623 41.0619 119.337 41.3451C119.05 41.6176 118.838 41.9531 118.679 42.3517C118.53 42.75 118.446 43.2009 118.446 43.7148Z" fill="#181819"/>
<path d="M130.75 40.6005H129.901C129.668 40.6005 129.498 40.5482 129.403 40.4432C129.307 40.3384 129.254 40.1602 129.254 39.898C129.254 39.6359 129.307 39.4577 129.403 39.3527C129.498 39.2479 129.668 39.1955 129.901 39.1955H131.546C131.779 39.1955 131.949 39.2479 132.044 39.3527C132.14 39.4577 132.193 39.6359 132.193 39.898V40.7264C132.617 40.1707 133.115 39.7302 133.688 39.4261C134.261 39.122 134.887 38.9648 135.576 38.9648C136.213 38.9648 136.807 39.0697 137.348 39.2898C137.889 39.51 138.366 39.8141 138.759 40.223C139.151 40.6319 139.469 41.1248 139.692 41.712C139.915 42.2992 140.031 42.9598 140.031 43.7043C140.031 44.4487 139.915 45.1094 139.692 45.6965C139.469 46.2838 139.151 46.7766 138.759 47.1855C138.366 47.5945 137.889 47.8986 137.348 48.1187C136.807 48.3389 136.213 48.4437 135.576 48.4437C134.887 48.4437 134.272 48.3075 133.731 48.0243C133.19 47.7412 132.712 47.3427 132.299 46.829V51.3902H134.59C134.823 51.3902 134.993 51.4427 135.089 51.5475C135.184 51.6523 135.237 51.8305 135.237 52.0928C135.237 52.355 135.184 52.5332 135.089 52.638C134.993 52.7428 134.823 52.7953 134.59 52.7953H129.594C129.36 52.7953 129.191 52.7428 129.095 52.638C129 52.5332 128.947 52.355 128.947 52.0928C128.947 51.8305 129 51.6523 129.095 51.5475C129.191 51.4427 129.36 51.3902 129.594 51.3902H130.75V40.6005ZM132.299 43.7148C132.299 44.2285 132.373 44.6794 132.532 45.078C132.691 45.4763 132.914 45.8119 133.19 46.0845C133.466 46.3572 133.805 46.5668 134.197 46.7136C134.579 46.8604 135.004 46.9338 135.46 46.9338C135.926 46.9338 136.34 46.8604 136.711 46.6927C137.083 46.5354 137.38 46.3152 137.634 46.0217C137.878 45.7385 138.069 45.3924 138.207 45.0044C138.334 44.6166 138.398 44.1866 138.398 43.7148C138.398 43.2429 138.334 42.8131 138.207 42.4251C138.08 42.037 137.889 41.691 137.634 41.408C137.39 41.1248 137.083 40.9046 136.711 40.7369C136.34 40.5796 135.937 40.4957 135.46 40.4957C135.004 40.4957 134.579 40.5691 134.197 40.7159C133.816 40.8626 133.476 41.0619 133.19 41.3451C132.903 41.6176 132.691 41.9531 132.532 42.3517C132.373 42.75 132.299 43.2009 132.299 43.7148Z" fill="#181819"/>
<path d="M145.918 48.3075C145.918 48.5487 145.865 48.7164 145.749 48.8212C145.632 48.9262 145.43 48.9785 145.144 48.9785C144.858 48.9785 144.656 48.9262 144.539 48.8212C144.423 48.7164 144.37 48.5487 144.37 48.3075V45.8329C144.37 45.5917 144.423 45.4239 144.539 45.319C144.656 45.2142 144.858 45.1617 145.144 45.1617C145.293 45.1617 145.409 45.1932 145.494 45.2667C145.579 45.3401 145.643 45.4449 145.696 45.5917C145.95 46.2627 146.364 46.745 146.947 47.0388C147.52 47.3427 148.294 47.4896 149.249 47.4896C150.077 47.4896 150.692 47.3427 151.105 47.0491C151.519 46.7556 151.721 46.3676 151.721 45.8958C151.721 45.6442 151.646 45.4554 151.487 45.2981C151.328 45.1513 151.116 45.0255 150.851 44.9416C150.543 44.8367 150.193 44.7633 149.801 44.7109C149.408 44.6585 148.984 44.6166 148.538 44.5641C148.093 44.5117 147.658 44.4592 147.223 44.3753C146.788 44.3019 146.385 44.1866 146.014 44.0398C145.781 43.9559 145.568 43.8405 145.377 43.7043C145.186 43.5784 145.017 43.4211 144.879 43.2429C144.741 43.0647 144.624 42.8549 144.55 42.6243C144.476 42.3936 144.433 42.121 144.433 41.8169C144.433 41.3555 144.529 40.9466 144.709 40.5901C144.9 40.2335 145.155 39.94 145.473 39.6988C145.802 39.4577 146.184 39.2793 146.629 39.1536C147.075 39.0277 147.563 38.9648 148.082 38.9648C148.772 38.9648 149.387 39.0697 149.939 39.2689C150.49 39.4681 150.957 39.7512 151.349 40.0973V39.6359C151.349 39.3947 151.402 39.227 151.519 39.122C151.636 39.0172 151.837 38.9648 152.124 38.9648C152.41 38.9648 152.612 39.0172 152.728 39.122C152.845 39.227 152.898 39.3947 152.898 39.6359V41.5967C152.898 41.8378 152.845 42.0056 152.728 42.1104C152.612 42.2153 152.41 42.2677 152.124 42.2677C151.89 42.2677 151.731 42.1838 151.625 41.9951C151.466 41.7015 151.275 41.4499 151.052 41.2506C150.83 41.0514 150.575 40.8942 150.278 40.7789C149.981 40.6635 149.663 40.5796 149.313 40.5271C148.963 40.4852 148.581 40.4537 148.188 40.4537C147.52 40.4537 147 40.5691 146.629 40.7998C146.247 41.0305 146.067 41.366 146.067 41.8063C146.067 42.037 146.141 42.2153 146.29 42.3517C146.438 42.4879 146.64 42.6033 146.905 42.6872C147.191 42.7815 147.531 42.855 147.912 42.8968C148.294 42.9388 148.697 42.9807 149.132 43.0332C149.567 43.0856 149.992 43.1275 150.426 43.2009C150.861 43.2743 151.265 43.3688 151.636 43.505C151.89 43.5995 152.124 43.7148 152.336 43.8511C152.548 43.9873 152.728 44.1446 152.887 44.3334C153.047 44.5221 153.163 44.7423 153.248 44.994C153.333 45.2456 153.375 45.5392 153.375 45.8644C153.375 46.3256 153.29 46.745 153.11 47.1225C152.93 47.5 152.675 47.8252 152.336 48.0977C151.996 48.3703 151.572 48.5801 151.074 48.7269C150.575 48.8737 150.002 48.9471 149.366 48.9471C148.613 48.9471 147.955 48.8423 147.403 48.6325C146.841 48.4228 146.353 48.1082 145.929 47.6888V48.3075H145.918Z" fill="#181819"/>
<path d="M29.45 68.332H23V69.5182H29.45V68.332Z" fill="#1C1B1B"/>
<path d="M176.351 70.8338V66.623H179V67.4415H177.22V68.3073H178.64V69.1258H177.22V70.0154H179V70.8338H176.351Z" fill="#1C1B1B"/>
<path d="M169.931 70.8338V66.623H170.8V70.0154H172.623V70.8338H169.931Z" fill="#1C1B1B"/>
<path d="M164.121 70.9058C163.481 70.9058 162.95 70.6963 162.526 70.2772C162.102 69.858 161.891 69.342 161.891 68.7293C161.891 68.1165 162.102 67.6005 162.526 67.1814C162.95 66.7622 163.481 66.5527 164.121 66.5527C164.604 66.5527 165.038 66.6931 165.421 66.9738C165.809 67.2506 166.063 67.6124 166.183 68.0591H165.242C165.158 67.8535 165.01 67.6895 164.798 67.5669C164.59 67.4443 164.364 67.383 164.121 67.383C163.721 67.383 163.395 67.5116 163.143 67.7685C162.892 68.0255 162.766 68.3457 162.766 68.7293C162.766 69.1128 162.892 69.4331 163.143 69.69C163.395 69.947 163.721 70.0755 164.121 70.0755C164.364 70.0755 164.59 70.0143 164.798 69.8917C165.01 69.769 165.158 69.6051 165.242 69.3994H166.183C166.063 69.8461 165.809 70.21 165.421 70.4907C165.038 70.7675 164.604 70.9058 164.121 70.9058Z" fill="#1C1B1B"/>
<path d="M155.225 70.8338V66.623H156.856C157.243 66.623 157.557 66.7417 157.797 66.9789C158.041 67.2161 158.163 67.5126 158.163 67.8685C158.163 68.4221 157.871 68.7877 157.287 68.9656L158.816 70.8338H157.767L156.304 69.0605H156.094V70.8338H155.225ZM156.094 68.3251H156.754C156.922 68.3251 157.054 68.2857 157.149 68.2065C157.249 68.1235 157.299 68.0108 157.299 67.8685C157.299 67.7261 157.249 67.6155 157.149 67.5364C157.054 67.4533 156.922 67.4118 156.754 67.4118H156.094V68.3251Z" fill="#1C1B1B"/>
<path d="M150.293 70.8338V66.623H151.163V70.8338H150.293Z" fill="#1C1B1B"/>
<path d="M144.482 70.9058C143.843 70.9058 143.312 70.6963 142.888 70.2772C142.464 69.858 142.252 69.342 142.252 68.7293C142.252 68.1165 142.464 67.6005 142.888 67.1814C143.312 66.7622 143.843 66.5527 144.482 66.5527C144.966 66.5527 145.4 66.6931 145.783 66.9738C146.171 67.2506 146.425 67.6124 146.545 68.0591H145.604C145.52 67.8535 145.372 67.6895 145.16 67.5669C144.952 67.4443 144.726 67.383 144.482 67.383C144.083 67.383 143.757 67.5116 143.505 67.7685C143.254 68.0255 143.128 68.3457 143.128 68.7293C143.128 69.1128 143.254 69.4331 143.505 69.69C143.757 69.947 144.083 70.0755 144.482 70.0755C144.726 70.0755 144.952 70.0143 145.16 69.8917C145.372 69.769 145.52 69.6051 145.604 69.3994H146.545C146.425 69.8461 146.171 70.21 145.783 70.4907C145.4 70.7675 144.966 70.9058 144.482 70.9058Z" fill="#1C1B1B"/>
<path d="M134.015 67.0323C134.299 67.3012 134.441 67.6372 134.441 68.0405C134.441 68.4437 134.299 68.7818 134.015 69.0546C133.731 69.3235 133.376 69.4579 132.948 69.4579H132.402V70.8338H131.533V66.623H132.948C133.376 66.623 133.731 66.7595 134.015 67.0323ZM133.416 68.4793C133.536 68.3647 133.595 68.2184 133.595 68.0405C133.595 67.8625 133.536 67.7164 133.416 67.6016C133.296 67.487 133.136 67.4296 132.936 67.4296H132.402V68.6513H132.936C133.136 68.6513 133.296 68.5941 133.416 68.4793Z" fill="#1C1B1B"/>
<path d="M124.582 69.6841C124.841 69.945 125.155 70.0755 125.523 70.0755C125.89 70.0755 126.202 69.945 126.458 69.6841C126.718 69.4191 126.848 69.101 126.848 68.7293C126.848 68.3576 126.718 68.0413 126.458 67.7804C126.202 67.5154 125.89 67.383 125.523 67.383C125.155 67.383 124.841 67.5154 124.582 67.7804C124.326 68.0413 124.198 68.3576 124.198 68.7293C124.198 69.101 124.326 69.4191 124.582 69.6841ZM127.075 70.2712C126.648 70.6942 126.13 70.9058 125.523 70.9058C124.915 70.9058 124.396 70.6942 123.964 70.2712C123.537 69.8442 123.323 69.3302 123.323 68.7293C123.323 68.1283 123.537 67.6162 123.964 67.1932C124.396 66.7662 124.915 66.5527 125.523 66.5527C126.13 66.5527 126.648 66.7662 127.075 67.1932C127.507 67.6162 127.723 68.1283 127.723 68.7293C127.723 69.3302 127.507 69.8442 127.075 70.2712Z" fill="#1C1B1B"/>
<path d="M115.926 70.8338V66.623H116.796V68.3014H118.642V66.623H119.511V70.8338H118.642V69.1198H116.796V70.8338H115.926Z" fill="#1C1B1B"/>
<path d="M110.622 70.9058C110.138 70.9058 109.749 70.7694 109.453 70.4966C109.157 70.2198 109.001 69.8976 108.985 69.5299H109.855C109.887 69.7157 109.973 69.8601 110.112 69.9628C110.252 70.0617 110.422 70.1111 110.622 70.1111C110.802 70.1111 110.948 70.0736 111.06 69.9984C111.171 69.9194 111.227 69.8146 111.227 69.6841C111.227 69.4509 111.038 69.2808 110.658 69.1741L110.208 69.0436C109.861 68.9447 109.589 68.7905 109.393 68.581C109.197 68.3715 109.097 68.1106 109.093 67.7982C109.093 67.4146 109.223 67.1121 109.483 66.8908C109.743 66.6654 110.088 66.5527 110.52 66.5527C110.956 66.5527 111.309 66.6832 111.581 66.9442C111.853 67.2011 111.997 67.4976 112.013 67.8337H111.149C111.105 67.6677 111.025 67.5451 110.91 67.466C110.794 67.387 110.664 67.3474 110.52 67.3474C110.36 67.3474 110.228 67.383 110.124 67.4542C110.024 67.5213 109.973 67.6162 109.968 67.7389C109.965 67.8653 110.006 67.9682 110.094 68.0472C110.182 68.1263 110.318 68.1915 110.502 68.243L111 68.3794C111.735 68.581 112.103 69.0061 112.103 69.6544C112.103 70.0181 111.965 70.3187 111.689 70.5559C111.417 70.7891 111.061 70.9058 110.622 70.9058Z" fill="#1C1B1B"/>
<path d="M98.8329 70.8338V69.0605L97.2622 66.623H98.2693L99.2646 68.2184L100.266 66.623H101.279L99.7021 69.0665V70.8338H98.8329Z" fill="#1C1B1B"/>
<path d="M91.0693 70.8338V66.623H92.628C92.9836 66.623 93.2833 66.7437 93.5272 66.9848C93.771 67.222 93.8929 67.5088 93.8929 67.8447C93.8929 68.1493 93.781 68.4003 93.5572 68.5979C93.9768 68.8036 94.1866 69.1357 94.1866 69.5943C94.1866 69.9463 94.0608 70.2407 93.8089 70.4779C93.5572 70.7152 93.2434 70.8338 92.8678 70.8338H91.0693ZM91.9386 70.045H92.8078C92.9716 70.045 93.1015 70.0016 93.1975 69.9145C93.2934 69.8236 93.3414 69.707 93.3414 69.5646C93.3414 69.4223 93.2934 69.3058 93.1975 69.2147C93.1015 69.1238 92.9716 69.0783 92.8078 69.0783H91.9386V70.045ZM91.9386 68.3488H92.544C92.6959 68.3488 92.8177 68.3054 92.9097 68.2184C93.0016 68.1275 93.0475 68.0148 93.0475 67.8803C93.0475 67.7499 92.9997 67.6393 92.9037 67.5482C92.8119 67.4533 92.6919 67.4059 92.544 67.4059H91.9386V68.3488Z" fill="#1C1B1B"/>
<path d="M79.1792 70.8338V66.623H80.582C81.1934 66.623 81.711 66.8268 82.1346 67.2339C82.5582 67.6412 82.77 68.1394 82.77 68.7284C82.77 69.3176 82.5582 69.8158 82.1346 70.2229C81.711 70.6302 81.1934 70.8338 80.582 70.8338H79.1792ZM80.0485 70.045H80.582C80.9696 70.045 81.2854 69.9185 81.5291 69.6654C81.7729 69.4125 81.8948 69.1001 81.8948 68.7284C81.8948 68.3569 81.7729 68.0445 81.5291 67.7914C81.2854 67.5384 80.9696 67.4118 80.582 67.4118H80.0485V70.045Z" fill="#1C1B1B"/>
<path d="M72.6548 70.8338V66.623H75.3045V67.4415H73.524V68.3073H74.9448V69.1258H73.524V70.0154H75.3045V70.8338H72.6548Z" fill="#1C1B1B"/>
<path d="M65.6035 70.8338V66.623H67.2342C67.6218 66.623 67.9354 66.7417 68.1753 66.9789C68.419 67.2161 68.541 67.5126 68.541 67.8685C68.541 68.4221 68.2492 68.7877 67.6657 68.9656L69.1944 70.8338H68.1453L66.6826 69.0605H66.4728V70.8338H65.6035ZM66.4728 68.3251H67.1322C67.3 68.3251 67.4319 68.2857 67.5279 68.2065C67.6278 68.1235 67.6777 68.0108 67.6777 67.8685C67.6777 67.7261 67.6278 67.6155 67.5279 67.5364C67.4319 67.4533 67.3 67.4118 67.1322 67.4118H66.4728V68.3251Z" fill="#1C1B1B"/>
<path d="M59.0791 70.8338V66.623H61.7289V67.4415H59.9484V68.3073H61.3692V69.1258H59.9484V70.0154H61.7289V70.8338H59.0791Z" fill="#1C1B1B"/>
<path d="M53.5461 70.8346L52.6111 68.5988L51.6758 70.8346H50.8605L49.8354 66.6239H50.7587L51.4061 69.4231L52.6111 66.5527L53.816 69.4231L54.4634 66.6239H55.3867L54.3616 70.8346H53.5461Z" fill="#1C1B1B"/>
<path d="M43.2902 69.6841C43.55 69.945 43.8638 70.0755 44.2314 70.0755C44.5991 70.0755 44.9108 69.945 45.1665 69.6841C45.4263 69.4191 45.5562 69.101 45.5562 68.7293C45.5562 68.3576 45.4263 68.0413 45.1665 67.7804C44.9108 67.5154 44.5991 67.383 44.2314 67.383C43.8638 67.383 43.55 67.5154 43.2902 67.7804C43.0345 68.0413 42.9065 68.3576 42.9065 68.7293C42.9065 69.101 43.0345 69.4191 43.2902 69.6841ZM45.7841 70.2712C45.3564 70.6942 44.8389 70.9058 44.2314 70.9058C43.6239 70.9058 43.1043 70.6942 42.6728 70.2712C42.2451 69.8442 42.0312 69.3302 42.0312 68.7293C42.0312 68.1283 42.2451 67.6162 42.6728 67.1932C43.1043 66.7662 43.6239 66.5527 44.2314 66.5527C44.8389 66.5527 45.3564 66.7662 45.7841 67.1932C46.2156 67.6162 46.4315 68.1283 46.4315 68.7293C46.4315 69.3302 46.2156 69.8442 45.7841 70.2712Z" fill="#1C1B1B"/>
<path d="M38.1059 67.0323C38.3897 67.3012 38.5314 67.6372 38.5314 68.0405C38.5314 68.4437 38.3897 68.7818 38.1059 69.0546C37.8221 69.3235 37.4664 69.4579 37.0388 69.4579H36.4933V70.8338H35.624V66.623H37.0388C37.4664 66.623 37.8221 66.7595 38.1059 67.0323ZM37.5064 68.4793C37.6263 68.3647 37.6862 68.2184 37.6862 68.0405C37.6862 67.8625 37.6263 67.7164 37.5064 67.6016C37.3865 67.487 37.2266 67.4296 37.0268 67.4296H36.4933V68.6513H37.0268C37.2266 68.6513 37.3865 68.5941 37.5064 68.4793Z" fill="#1C1B1B"/>
</g>
<defs>
<clipPath id="clip0_20686_5199">
<rect width="156" height="47" fill="white" transform="translate(23 24)"/>
</clipPath>
</defs>
</svg>
