<svg xmlns="http://www.w3.org/2000/svg" width="35" height="35" viewBox="0 0 35 35" fill="none">
                <g clip-path="url(#clip0_8438_2336)">
                  <path d="M12.4655 4.91203C12.4655 2.80656 10.7527 1.09375 8.64828 1.09375C6.54391 1.09375 4.82781 2.80656 4.82781 4.91203C4.82781 7.0175 6.54063 8.72922 8.64609 8.72922C10.7516 8.72922 12.4644 7.0175 12.4644 4.91203H12.4655ZM7.01641 4.91203C7.01641 4.01406 7.74813 3.28125 8.64719 3.28125C9.54625 3.28125 10.278 4.01297 10.278 4.91203C10.278 5.81109 9.54734 6.54172 8.64828 6.54172C7.74922 6.54172 7.01641 5.81109 7.01641 4.91203ZM1.09375 17.0603C1.09375 17.3504 1.20898 17.6286 1.4141 17.8337C1.61922 18.0388 1.89742 18.1541 2.1875 18.1541H15.108C15.398 18.1541 15.6762 18.0388 15.8814 17.8337C16.0865 17.6286 16.2017 17.3504 16.2017 17.0603C16.1997 15.0768 15.4108 13.1751 14.0083 11.7725C12.6057 10.3699 10.704 9.58109 8.72047 9.57906H8.575C6.59128 9.58109 4.68941 10.3701 3.28681 11.7729C1.88421 13.1757 1.09549 15.0777 1.09375 17.0614V17.0603ZM8.57391 11.7666H8.72156C9.93508 11.7683 11.1113 12.1863 12.0538 12.9507C12.9963 13.715 13.6482 14.7796 13.9005 15.9666H3.395C3.64731 14.7796 4.29914 13.715 5.24167 12.9507C6.1842 12.1863 7.36039 11.7683 8.57391 11.7666ZM26.3528 16.8459C25.3405 16.8471 24.37 17.2497 23.6542 17.9656C22.9383 18.6814 22.5357 19.6519 22.5345 20.6642C22.5345 22.7697 24.2473 24.4814 26.3517 24.4814C28.4561 24.4814 30.1711 22.7697 30.1711 20.6642C30.1699 19.6519 29.7673 18.6814 29.0515 17.9656C28.3356 17.2497 27.3651 16.8471 26.3528 16.8459ZM26.3528 22.295C25.9207 22.2944 25.5064 22.1226 25.2007 21.8171C24.895 21.5116 24.7229 21.0975 24.722 20.6653C24.722 19.7652 25.4527 19.0334 26.3517 19.0334C27.2508 19.0334 27.9836 19.7652 27.9836 20.6642C27.9836 21.5633 27.2519 22.2939 26.3528 22.2939V22.295ZM26.4261 25.3312H26.2784C24.2951 25.3336 22.3937 26.1225 20.9913 27.5251C19.589 28.9276 18.8003 30.8292 18.7983 32.8125C18.7983 33.1026 18.9135 33.3808 19.1186 33.5859C19.3238 33.791 19.602 33.9062 19.892 33.9062H32.8125C33.1026 33.9062 33.3808 33.791 33.5859 33.5859C33.791 33.3808 33.9062 33.1026 33.9062 32.8125C33.9042 30.8292 33.1155 28.9276 31.7132 27.5251C30.3109 26.1225 28.4094 25.3336 26.4261 25.3312ZM21.0995 31.7188C21.3518 30.5318 22.0037 29.4672 22.9462 28.7028C23.8887 27.9385 25.0649 27.5205 26.2784 27.5187H26.4261C27.6396 27.5205 28.8158 27.9385 29.7583 28.7028C30.7009 29.4672 31.3527 30.5318 31.605 31.7188H21.0995ZM24.0625 3.81828H17.5C17.3564 3.81828 17.2141 3.84657 17.0814 3.90154C16.9487 3.9565 16.8282 4.03707 16.7266 4.13863C16.625 4.2402 16.5445 4.36077 16.4895 4.49347C16.4345 4.62617 16.4062 4.7684 16.4062 4.91203C16.4062 5.05566 16.4345 5.19789 16.4895 5.33059C16.5445 5.46329 16.625 5.58387 16.7266 5.68543C16.8282 5.78699 16.9487 5.86756 17.0814 5.92252C17.2141 5.97749 17.3564 6.00578 17.5 6.00578H24.0625C25.8716 6.00578 27.3438 7.47797 27.3438 9.28703V13.8677C27.3438 14.1577 27.459 14.4359 27.6641 14.6411C27.8692 14.8462 28.1474 14.9614 28.4375 14.9614C28.7276 14.9614 29.0058 14.8462 29.2109 14.6411C29.416 14.4359 29.5312 14.1577 29.5312 13.8677V9.28594C29.5312 6.27047 27.078 3.81828 24.0625 3.81828ZM10.9375 28.9942C9.12844 28.9942 7.65625 27.522 7.65625 25.713V21.1313C7.65625 20.8412 7.54102 20.563 7.3359 20.3579C7.13078 20.1527 6.85258 20.0375 6.5625 20.0375C6.27242 20.0375 5.99422 20.1527 5.7891 20.3579C5.58398 20.563 5.46875 20.8412 5.46875 21.1313V25.7119C5.46875 28.7273 7.92203 31.1806 10.9375 31.1806H15.9469C16.237 31.1806 16.5152 31.0654 16.7203 30.8603C16.9254 30.6552 17.0406 30.377 17.0406 30.0869C17.0406 29.7968 16.9254 29.5186 16.7203 29.3135C16.5152 29.1084 16.237 28.9931 15.9469 28.9931L10.9375 28.9942Z" fill="url(#paint0_linear_8438_2336)" stroke="url(#paint1_linear_8438_2336)" stroke-width="0.6"></path>
                </g>
                <defs>
                  <linearGradient id="paint0_linear_8438_2336" x1="0.594996" y1="5.05233" x2="36.9643" y2="9.63461" gradientUnits="userSpaceOnUse">
                    <stop offset="0.285" stop-color="#15C064"></stop>
                    <stop offset="0.9182" stop-color="#00D1FF"></stop>
                  </linearGradient>
                  <linearGradient id="paint1_linear_8438_2336" x1="0.594996" y1="5.05233" x2="36.9643" y2="9.63461" gradientUnits="userSpaceOnUse">
                    <stop offset="0.285" stop-color="#15C064"></stop>
                    <stop offset="0.9182" stop-color="#00D1FF"></stop>
                  </linearGradient>
                  <clipPath id="clip0_8438_2336">
                    <rect width="35" height="35" fill="white"></rect>
                  </clipPath>
                </defs>
              </svg>