<svg width="24" height="24" viewBox="0 0 24 24" fill="none" xmlns="http://www.w3.org/2000/svg">
<path d="M10.445 13.8166L12.4774 9.80522C12.6237 9.51652 12.9764 9.40111 13.2649 9.54736C13.5536 9.69361 13.669 10.0462 13.5228 10.3349L11.4904 14.3462C11.4414 14.4429 11.3666 14.5242 11.2743 14.5809C11.1819 14.6376 11.0756 14.6676 10.9673 14.6675C10.8782 14.6675 10.7878 14.6471 10.7029 14.6041C10.4142 14.4578 10.2988 14.1052 10.445 13.8166ZM14.7507 10.9439C14.5219 10.7151 14.1508 10.7151 13.922 10.9439C13.6932 11.1728 13.6932 11.5437 13.922 11.7726L14.7936 12.6441L13.922 13.5157C13.6932 13.7445 13.6932 14.1155 13.922 14.3443C14.0364 14.4587 14.1864 14.5159 14.3364 14.5159C14.4863 14.5159 14.6363 14.4587 14.7507 14.3443L16.0366 13.0584C16.2654 12.8296 16.2654 12.4586 16.0366 12.2298L14.7507 10.9439ZM10.078 12.076L9.20645 11.2044L10.078 10.3329C10.3068 10.1041 10.3068 9.73308 10.078 9.50423C9.84916 9.27539 9.47814 9.27539 9.24934 9.50423L7.96347 10.7901C7.73462 11.019 7.73462 11.3899 7.96347 11.6188L9.24934 12.9046C9.36372 13.0191 9.51372 13.0762 9.66367 13.0762C9.81363 13.0762 9.96358 13.0191 10.078 12.9046C10.3068 12.6758 10.3068 12.3048 10.078 12.076ZM18.7871 2.91797V21.082C18.7871 22.2128 17.8672 23.1328 16.7364 23.1328H7.26367C6.13286 23.1328 5.21289 22.2128 5.21289 21.082V2.91797C5.21289 1.78716 6.13286 0.867188 7.26367 0.867188H16.7364C17.8672 0.867188 18.7871 1.78716 18.7871 2.91797ZM9.0362 2.03906L9.44425 2.91797H14.5557L14.9638 2.03906H9.0362ZM17.6153 2.91797C17.6153 2.43333 17.221 2.03906 16.7364 2.03906H16.2558L15.4612 3.75066C15.4141 3.85197 15.3391 3.93773 15.2449 3.99783C15.1508 4.05792 15.0414 4.08985 14.9297 4.08984H9.07033C8.95862 4.08985 8.84925 4.05792 8.75508 3.99783C8.66092 3.93773 8.5859 3.85197 8.53886 3.75066L7.74419 2.03906H7.26367C6.77903 2.03906 6.38477 2.43333 6.38477 2.91797V21.082C6.38477 21.5667 6.77903 21.9609 7.26367 21.9609H16.7364C17.221 21.9609 17.6153 21.5667 17.6153 21.082V2.91797ZM13.6113 20.1055H10.3887C10.0651 20.1055 9.80275 20.3678 9.80275 20.6914C9.80275 21.015 10.0651 21.2774 10.3887 21.2774H13.6113C13.9349 21.2774 14.1973 21.015 14.1973 20.6914C14.1973 20.3678 13.9349 20.1055 13.6113 20.1055Z" fill="#AD5151"></path>
</svg>