<svg width="54" height="54" viewBox="0 0 54 54" fill="none" xmlns="http://www.w3.org/2000/svg">
<path d="M42.6937 23.8359L31.8516 39.015V46.6788C31.8527 46.9742 31.7648 47.263 31.5992 47.5076C31.4336 47.7523 31.1981 47.9412 30.9234 48.0499L24.1734 50.7499C23.9494 50.8395 23.7068 50.8729 23.4668 50.847C23.2269 50.8212 22.997 50.7369 22.7972 50.6016C22.5973 50.4663 22.4337 50.2841 22.3206 50.0709C22.2075 49.8577 22.1484 49.6201 22.1484 49.3788V39.015L11.3062 23.8359H42.6937ZM43.875 16.2422H10.125C9.50982 16.2429 8.92003 16.4875 8.48503 16.9225C8.05003 17.3575 7.80536 17.9473 7.80469 18.5625V20.25C7.80536 20.8652 8.05003 21.455 8.48503 21.89C8.92003 22.325 9.50982 22.5696 10.125 22.5703H43.875C44.4902 22.5696 45.08 22.325 45.515 21.89C45.95 21.455 46.1946 20.8652 46.1953 20.25V18.5625C46.1946 17.9473 45.95 17.3575 45.515 16.9225C45.08 16.4875 44.4902 16.2429 43.875 16.2422Z" fill="#282828"/>
<path d="M13.7109 12.9141C13.7109 9.77531 16.2675 7.21875 19.4062 7.21875C22.545 7.21875 25.1016 9.77531 25.1016 12.9141C25.1016 13.7409 24.9244 14.5256 24.6038 15.2344H14.2088C13.8881 14.5256 13.7109 13.7409 13.7109 12.9141Z" fill="#AD5151"/>
<path d="M28.8984 8.69531C28.8984 5.55488 31.4533 3 34.5938 3C37.7342 3 40.2891 5.55488 40.2891 8.69531C40.2891 11.8357 37.7342 14.3906 34.5938 14.3906C31.4533 14.3906 28.8984 11.8357 28.8984 8.69531Z" fill="#AD5151"/>
</svg>
