<svg width="35" height="35" viewBox="0 0 35 35" fill="none" xmlns="http://www.w3.org/2000/svg">
                                    <rect width="35" height="35" rx="17.5" fill="#0076B2"></rect>
                                    <path d="M9.61652 13.9813H13.2435V25.666H9.61652V13.9813ZM11.431 8.16602C11.847 8.16602 12.2537 8.28955 12.5995 8.521C12.9454 8.75245 13.2149 9.08141 13.374 9.46626C13.5331 9.85111 13.5746 10.2746 13.4933 10.6831C13.412 11.0915 13.2116 11.4667 12.9173 11.7611C12.623 12.0555 12.2481 12.2559 11.84 12.3369C11.432 12.4179 11.0091 12.3759 10.6249 12.2162C10.2407 12.0566 9.91238 11.7864 9.68155 11.4399C9.45072 11.0933 9.32773 10.6861 9.32813 10.2695C9.32866 9.71147 9.55044 9.17643 9.94475 8.782C10.3391 8.38757 10.8736 8.16602 11.431 8.16602ZM15.5186 13.9813H18.9954V15.5855H19.0434C19.5281 14.6671 20.7097 13.6986 22.4742 13.6986C26.1472 13.6905 26.8281 16.1109 26.8281 19.2491V25.666H23.2012V19.9811C23.2012 18.6275 23.1771 16.8849 21.3166 16.8849C19.456 16.8849 19.1396 18.3608 19.1396 19.8928V25.666H15.5186V13.9813Z" fill="white"></path>
                                </svg>