<svg width="24" height="24" viewBox="0 0 24 24" fill="none" xmlns="http://www.w3.org/2000/svg">
<g clip-path="url(#clip0_24072_35816)">
<path d="M16.5 23.25H12C11.8011 23.25 11.6103 23.171 11.4697 23.0303C11.329 22.8897 11.25 22.6989 11.25 22.5V20.25C11.25 19.8522 11.092 19.4706 10.8107 19.1893C10.5294 18.908 10.1478 18.75 9.75 18.75C9.35218 18.75 8.97064 18.908 8.68934 19.1893C8.40804 19.4706 8.25 19.8522 8.25 20.25V22.5C8.25 22.6989 8.17098 22.8897 8.03033 23.0303C7.88968 23.171 7.69891 23.25 7.5 23.25H3C2.40326 23.25 1.83097 23.0129 1.40901 22.591C0.987053 22.169 0.75 21.5967 0.75 21V16.5C0.75 16.3011 0.829018 16.1103 0.96967 15.9697C1.11032 15.829 1.30109 15.75 1.5 15.75H3.75C4.14782 15.75 4.52936 15.592 4.81066 15.3107C5.09196 15.0294 5.25 14.6478 5.25 14.25C5.25 13.8522 5.09196 13.4706 4.81066 13.1893C4.52936 12.908 4.14782 12.75 3.75 12.75H1.5C1.30109 12.75 1.11032 12.671 0.96967 12.5303C0.829018 12.3897 0.75 12.1989 0.75 12V7.5C0.75 6.90326 0.987053 6.33097 1.40901 5.90901C1.83097 5.48705 2.40326 5.25 3 5.25H6.75V3.75C6.75 2.95435 7.06607 2.19129 7.62868 1.62868C8.19129 1.06607 8.95435 0.75 9.75 0.75C10.5456 0.75 11.3087 1.06607 11.8713 1.62868C12.4339 2.19129 12.75 2.95435 12.75 3.75V5.25H16.5C17.0967 5.25 17.669 5.48705 18.091 5.90901C18.5129 6.33097 18.75 6.90326 18.75 7.5V11.25H20.25C21.0456 11.25 21.8087 11.5661 22.3713 12.1287C22.9339 12.6913 23.25 13.4544 23.25 14.25C23.25 15.0456 22.9339 15.8087 22.3713 16.3713C21.8087 16.9339 21.0456 17.25 20.25 17.25H18.75V21C18.75 21.5967 18.5129 22.169 18.091 22.591C17.669 23.0129 17.0967 23.25 16.5 23.25ZM12.75 21.75H16.5C16.6989 21.75 16.8897 21.671 17.0303 21.5303C17.171 21.3897 17.25 21.1989 17.25 21V16.5C17.25 16.3011 17.329 16.1103 17.4697 15.9697C17.6103 15.829 17.8011 15.75 18 15.75H20.25C20.6478 15.75 21.0294 15.592 21.3107 15.3107C21.592 15.0294 21.75 14.6478 21.75 14.25C21.75 13.8522 21.592 13.4706 21.3107 13.1893C21.0294 12.908 20.6478 12.75 20.25 12.75H18C17.8011 12.75 17.6103 12.671 17.4697 12.5303C17.329 12.3897 17.25 12.1989 17.25 12V7.5C17.25 7.30109 17.171 7.11032 17.0303 6.96967C16.8897 6.82902 16.6989 6.75 16.5 6.75H12C11.8011 6.75 11.6103 6.67098 11.4697 6.53033C11.329 6.38968 11.25 6.19891 11.25 6V3.75C11.25 3.35218 11.092 2.97064 10.8107 2.68934C10.5294 2.40804 10.1478 2.25 9.75 2.25C9.35218 2.25 8.97064 2.40804 8.68934 2.68934C8.40804 2.97064 8.25 3.35218 8.25 3.75V6C8.25 6.19891 8.17098 6.38968 8.03033 6.53033C7.88968 6.67098 7.69891 6.75 7.5 6.75H3C2.80109 6.75 2.61032 6.82902 2.46967 6.96967C2.32902 7.11032 2.25 7.30109 2.25 7.5V11.25H3.75C4.54565 11.25 5.30871 11.5661 5.87132 12.1287C6.43393 12.6913 6.75 13.4544 6.75 14.25C6.75 15.0456 6.43393 15.8087 5.87132 16.3713C5.30871 16.9339 4.54565 17.25 3.75 17.25H2.25V21C2.25 21.1989 2.32902 21.3897 2.46967 21.5303C2.61032 21.671 2.80109 21.75 3 21.75H6.75V20.25C6.75 19.4544 7.06607 18.6913 7.62868 18.1287C8.19129 17.5661 8.95435 17.25 9.75 17.25C10.5456 17.25 11.3087 17.5661 11.8713 18.1287C12.4339 18.6913 12.75 19.4544 12.75 20.25V21.75Z" fill="#AD5151"/>
</g>
<defs>
<clipPath id="clip0_24072_35816">
<rect width="24" height="24" fill="white"/>
</clipPath>
</defs>
</svg>