<svg width="203" height="94" viewBox="0 0 203 94" fill="none" xmlns="http://www.w3.org/2000/svg">
<rect width="202.548" height="94" rx="10" fill="white"/>
<g clip-path="url(#clip0_20461_27528)">
<path d="M40.699 53.0472L36.5018 51.0538L37.1725 49.5862C37.4105 49.0824 37.5403 48.5348 37.6052 48.0091C37.735 46.5634 37.2158 45.1176 36.1989 44.11C35.8311 43.7376 35.3768 43.4091 34.8792 43.19C34.3816 42.9491 33.8407 42.8176 33.3215 42.7519C31.8936 42.6205 30.4657 43.1462 29.4705 44.1757C29.1027 44.5481 28.7781 45.0081 28.5618 45.5119L27.8911 46.9795L26.593 49.7834C26.5714 49.8491 26.593 49.9148 26.6579 49.9586L29.4272 51.2729L30.8767 51.9519L32.3263 52.631L35.2037 53.9891L38.3191 55.4786C35.5715 57.4281 31.8719 57.8443 28.6267 56.2234C23.9752 53.8795 22.0064 48.1405 24.2781 43.3872C26.5281 38.6338 32.1532 36.5967 36.8912 38.831C40.6341 40.5834 42.6894 44.4824 42.3649 48.4253C42.3649 48.4691 42.3865 48.5348 42.4298 48.5567L45.1991 49.871C45.264 49.9148 45.3721 49.871 45.3721 49.7834C46.3241 44.1757 43.5115 38.3929 38.1461 35.8957C31.7854 32.9167 24.2997 35.6986 21.3357 42.1386C18.3718 48.5786 21.1194 56.2453 27.4801 59.2462C32.3046 61.5243 37.8432 60.4729 41.5211 56.99C42.2783 56.2672 42.949 55.4567 43.5332 54.5586C43.5764 54.4929 43.5548 54.4053 43.4899 54.3615L40.699 53.0472ZM30.7469 48.3376L31.4176 46.87C31.7854 46.0595 32.7373 45.7091 33.5378 46.0815C34.3383 46.4538 34.6845 47.4176 34.3167 48.2281L33.646 49.6957L32.1965 49.0167L30.7469 48.3376ZM59.6728 46.7167H65.1681V53.9672C64.2811 54.2519 63.4373 54.471 62.6584 54.5805C61.8796 54.69 61.0574 54.7557 60.257 54.7557C58.1584 54.7557 56.579 54.1424 55.4756 52.8938C54.3723 51.6453 53.8314 49.871 53.8314 47.5272C53.8314 45.271 54.4804 43.4967 55.7569 42.2262C57.0334 40.9557 58.8074 40.3205 61.0791 40.3205C62.507 40.3205 63.87 40.6053 65.1897 41.1748L64.2161 43.5624C63.1993 43.0586 62.1608 42.7957 61.0575 42.7957C59.781 42.7957 58.7641 43.2338 58.0069 44.0881C57.2497 44.9424 56.8603 46.1034 56.8603 47.571C56.8603 49.0824 57.1632 50.2653 57.7906 51.0538C58.3964 51.8643 59.305 52.2586 60.4733 52.2586C61.0791 52.2586 61.7065 52.1929 62.3339 52.0615V49.17H59.7161V46.7167H59.6728ZM72.0913 54.7776C70.3821 54.7776 69.0624 54.2957 68.0888 53.3538C67.1369 52.4119 66.6393 51.0538 66.6393 49.3015C66.6393 47.5053 67.0936 46.1253 67.9806 45.1395C68.8677 44.1538 70.1008 43.6719 71.6586 43.6719C73.1514 43.6719 74.3197 44.11 75.1634 44.9643C76.0072 45.8186 76.4182 47.0234 76.4182 48.5348V49.9586H69.5816C69.6032 50.791 69.8629 51.4481 70.3172 51.9081C70.7715 52.3681 71.4206 52.6091 72.2211 52.6091C72.8485 52.6091 73.4543 52.5434 74.0384 52.4119C74.6009 52.2805 75.2067 52.0615 75.8125 51.7767V54.0329C75.3149 54.2957 74.774 54.471 74.1898 54.6024C73.6057 54.7119 72.9134 54.7776 72.0913 54.7776ZM71.6802 45.731C71.0744 45.731 70.5768 45.9281 70.2307 46.3224C69.8845 46.7167 69.6898 47.2643 69.6249 47.9872H73.6706C73.649 47.2643 73.4759 46.7167 73.1081 46.3224C72.7836 45.9281 72.286 45.731 71.6802 45.731ZM87.5602 54.5805H84.6611V48.3157C84.6611 47.5491 84.5313 46.9576 84.2501 46.5853C83.9688 46.191 83.5361 46.0157 82.952 46.0157C82.1515 46.0157 81.5674 46.2786 81.1996 46.8262C80.8318 47.3738 80.6587 48.2719 80.6587 49.5424V54.5805H77.7596V43.8472H79.9664L80.3558 45.2272H80.5072C80.8318 44.7015 81.2645 44.3072 81.8486 44.0443C82.4111 43.7815 83.0602 43.65 83.7741 43.65C85.0073 43.65 85.9376 43.9786 86.5867 44.6576C87.2141 45.3367 87.5386 46.3005 87.5386 47.571V54.5805H87.5602ZM94.3752 54.7776C92.6661 54.7776 91.3463 54.2957 90.3728 53.3538C89.4208 52.4119 88.9232 51.0538 88.9232 49.3015C88.9232 47.5053 89.3776 46.1253 90.2646 45.1395C91.1516 44.1538 92.3848 43.6719 93.9425 43.6719C95.4353 43.6719 96.6036 44.11 97.4474 44.9643C98.2911 45.8186 98.7022 47.0234 98.7022 48.5348V49.9586H91.8656C91.8872 50.791 92.1468 51.4481 92.6012 51.9081C93.0555 52.3681 93.7045 52.6091 94.505 52.6091C95.1324 52.6091 95.7382 52.5434 96.3224 52.4119C96.8849 52.2805 97.4906 52.0615 98.0964 51.7767V54.0329C97.5988 54.2957 97.058 54.471 96.4738 54.6024C95.9113 54.7119 95.1974 54.7776 94.3752 54.7776ZM93.9642 45.731C93.3584 45.731 92.8608 45.9281 92.5146 46.3224C92.1685 46.7167 91.9738 47.2643 91.9088 47.9872H95.9546C95.9329 47.2643 95.7599 46.7167 95.3921 46.3224C95.0675 45.9281 94.5916 45.731 93.9642 45.731ZM106.101 43.65C106.491 43.65 106.815 43.6719 107.075 43.7376L106.859 46.4757C106.621 46.41 106.339 46.3881 106.015 46.3881C105.085 46.3881 104.371 46.6291 103.851 47.111C103.332 47.5929 103.072 48.2719 103.072 49.1262V54.5805H100.195V43.8472H102.38L102.813 45.6434H102.964C103.289 45.0519 103.743 44.5481 104.306 44.1976C104.847 43.8472 105.452 43.65 106.101 43.65ZM114.582 54.5805L114.02 53.1129H113.933C113.457 53.7262 112.938 54.1643 112.44 54.4053C111.921 54.6462 111.25 54.7557 110.428 54.7557C109.411 54.7557 108.611 54.471 108.027 53.8795C107.443 53.2881 107.14 52.4557 107.14 51.3605C107.14 50.2215 107.529 49.3891 108.33 48.8415C109.109 48.2938 110.299 48.0091 111.878 47.9434L113.717 47.8776V47.4176C113.717 46.3224 113.176 45.7967 112.073 45.7967C111.229 45.7967 110.234 46.0595 109.087 46.5634L108.135 44.5919C109.347 43.9567 110.71 43.6281 112.181 43.6281C113.609 43.6281 114.69 43.9348 115.448 44.57C116.205 45.2053 116.594 46.1472 116.594 47.4395V54.5805H114.582ZM113.717 49.6081L112.592 49.6519C111.748 49.6738 111.121 49.8272 110.71 50.1119C110.299 50.3967 110.104 50.8129 110.104 51.4043C110.104 52.2367 110.58 52.631 111.51 52.631C112.181 52.631 112.722 52.4338 113.111 52.0395C113.522 51.6453 113.717 51.1415 113.717 50.4843V49.6081ZM123.171 52.4338C123.669 52.4338 124.275 52.3243 124.989 52.1053V54.2738C124.275 54.6024 123.388 54.7557 122.328 54.7557C121.181 54.7557 120.337 54.471 119.796 53.8576C119.277 53.2662 118.996 52.3681 118.996 51.1853V46.0595H117.611V44.8329L119.212 43.8472L120.056 41.591H121.895V43.8691H124.859V46.0595H121.895V51.2291C121.895 51.6453 122.003 51.9519 122.241 52.1491C122.479 52.3462 122.782 52.4338 123.171 52.4338ZM131.155 54.7776C129.445 54.7776 128.126 54.2957 127.152 53.3538C126.2 52.4119 125.703 51.0538 125.703 49.3015C125.703 47.5053 126.157 46.1253 127.044 45.1395C127.931 44.1538 129.164 43.6719 130.722 43.6719C132.215 43.6719 133.383 44.11 134.227 44.9643C135.071 45.8186 135.482 47.0234 135.482 48.5348V49.9586H128.645C128.667 50.791 128.926 51.4481 129.381 51.9081C129.835 52.3681 130.484 52.6091 131.284 52.6091C131.912 52.6091 132.518 52.5434 133.102 52.4119C133.664 52.2805 134.27 52.0615 134.876 51.7767V54.0329C134.378 54.2957 133.837 54.471 133.253 54.6024C132.669 54.7119 131.977 54.7776 131.155 54.7776ZM130.744 45.731C130.138 45.731 129.64 45.9281 129.294 46.3224C128.948 46.7167 128.753 47.2643 128.688 47.9872H132.734C132.712 47.2643 132.539 46.7167 132.171 46.3224C131.847 45.9281 131.349 45.731 130.744 45.731ZM146.537 44.9205C146.537 46.4319 146.061 47.5929 145.131 48.3815C144.2 49.17 142.881 49.5862 141.15 49.5862H139.895V54.5805H136.974V40.5615H141.41C143.097 40.5615 144.374 40.9338 145.239 41.6567C146.104 42.3795 146.537 43.4748 146.537 44.9205ZM139.895 47.1548H140.869C141.777 47.1548 142.448 46.9795 142.902 46.6072C143.357 46.2567 143.573 45.7091 143.573 45.03C143.573 44.3291 143.378 43.8253 143.011 43.4748C142.643 43.1462 142.037 42.971 141.236 42.971H139.895V47.1548ZM153.612 43.65C154.001 43.65 154.326 43.6719 154.585 43.7376L154.369 46.4757C154.131 46.41 153.85 46.3881 153.525 46.3881C152.595 46.3881 151.881 46.6291 151.362 47.111C150.842 47.5929 150.583 48.2719 150.583 49.1262V54.5805H147.684V43.8472H149.869L150.301 45.6434H150.453C150.777 45.0519 151.232 44.5481 151.794 44.1976C152.357 43.8472 152.963 43.65 153.612 43.65ZM160.254 54.7776C158.544 54.7776 157.225 54.2957 156.251 53.3538C155.299 52.4119 154.802 51.0538 154.802 49.3015C154.802 47.5053 155.256 46.1253 156.143 45.1395C157.03 44.1538 158.263 43.6719 159.821 43.6719C161.314 43.6719 162.482 44.11 163.326 44.9643C164.169 45.8186 164.581 47.0234 164.581 48.5348V49.9586H157.744C157.766 50.791 158.025 51.4481 158.479 51.9081C158.934 52.3681 159.583 52.6091 160.383 52.6091C161.011 52.6091 161.617 52.5434 162.201 52.4119C162.763 52.2805 163.369 52.0615 163.975 51.7767V54.0329C163.477 54.2957 162.936 54.471 162.352 54.6024C161.768 54.7119 161.076 54.7776 160.254 54.7776ZM159.842 45.731C159.237 45.731 158.739 45.9281 158.393 46.3224C158.047 46.7167 157.852 47.2643 157.787 47.9872H161.855C161.833 47.2643 161.66 46.7167 161.292 46.3224C160.946 45.9281 160.448 45.731 159.842 45.731ZM173.537 51.4043C173.537 52.4995 173.17 53.3319 172.412 53.9234C171.655 54.4929 170.53 54.7776 169.016 54.7776C168.237 54.7776 167.588 54.7338 167.047 54.6243C166.506 54.5148 165.987 54.3615 165.511 54.1643V51.7548C166.052 52.0176 166.657 52.2148 167.328 52.39C167.999 52.5653 168.583 52.6529 169.102 52.6529C170.141 52.6529 170.682 52.3462 170.682 51.7329C170.682 51.4919 170.617 51.3167 170.465 51.1634C170.335 51.01 170.076 50.8567 169.751 50.6815C169.405 50.5062 168.951 50.2872 168.388 50.0462C167.566 49.6957 166.982 49.3891 166.593 49.0824C166.203 48.7976 165.922 48.4472 165.749 48.0748C165.576 47.7024 165.489 47.2205 165.489 46.6729C165.489 45.7091 165.857 44.9862 166.593 44.4605C167.328 43.9348 168.367 43.6719 169.686 43.6719C170.963 43.6719 172.196 43.9567 173.408 44.5262L172.542 46.6291C172.001 46.3881 171.525 46.2129 171.049 46.0595C170.595 45.9062 170.119 45.8405 169.643 45.8405C168.799 45.8405 168.367 46.0815 168.367 46.5415C168.367 46.8043 168.496 47.0234 168.778 47.2205C169.059 47.4176 169.665 47.7024 170.573 48.0748C171.396 48.4034 172.001 48.7319 172.391 49.0167C172.78 49.3015 173.061 49.6519 173.235 50.0243C173.451 50.4186 173.537 50.8567 173.537 51.4043ZM182.408 51.4043C182.408 52.4995 182.04 53.3319 181.283 53.9234C180.525 54.4929 179.4 54.7776 177.886 54.7776C177.107 54.7776 176.458 54.7338 175.917 54.6243C175.376 54.5148 174.857 54.3615 174.381 54.1643V51.7548C174.922 52.0176 175.528 52.2148 176.198 52.39C176.869 52.5653 177.453 52.6529 177.973 52.6529C179.011 52.6529 179.552 52.3462 179.552 51.7329C179.552 51.4919 179.487 51.3167 179.336 51.1634C179.206 51.01 178.946 50.8567 178.622 50.6815C178.275 50.5062 177.821 50.2872 177.259 50.0462C176.436 49.6957 175.852 49.3891 175.463 49.0824C175.073 48.7976 174.792 48.4472 174.619 48.0748C174.446 47.7024 174.36 47.2205 174.36 46.6729C174.36 45.7091 174.727 44.9862 175.463 44.4605C176.198 43.9348 177.237 43.6719 178.557 43.6719C179.833 43.6719 181.066 43.9567 182.278 44.5262L181.413 46.6291C180.872 46.3881 180.396 46.2129 179.92 46.0595C179.465 45.9062 178.989 45.8405 178.513 45.8405C177.67 45.8405 177.237 46.0815 177.237 46.5415C177.237 46.8043 177.367 47.0234 177.648 47.2205C177.929 47.4176 178.535 47.7024 179.444 48.0748C180.266 48.4034 180.872 48.7319 181.261 49.0167C181.65 49.3015 181.932 49.6519 182.105 50.0243C182.321 50.4186 182.408 50.8567 182.408 51.4043Z" fill="#222832"/>
</g>
<defs>
<clipPath id="clip0_20461_27528">
<rect width="162.262" height="25.7381" fill="white" transform="translate(20.1426 34.6904)"/>
</clipPath>
</defs>
</svg>
